<svg width="24" height="24" viewBox="0 0 24 24" fill="none" xmlns="http://www.w3.org/2000/svg">
<path d="M23.4788 16.4336C23.4425 16.225 23.351 16.0477 23.2052 15.9017C22.8822 15.5785 22.5069 15.5106 22.0797 15.6982C20.9332 16.2298 19.7447 16.4954 18.515 16.4954C16.9724 16.4954 15.5496 16.1154 14.2469 15.3543C12.9441 14.5935 11.9124 13.5617 11.1515 12.2588C10.3904 10.9559 10.0101 9.53321 10.0101 7.99052C10.0101 6.79193 10.2474 5.6532 10.7215 4.57438C11.1957 3.49561 11.8811 2.54975 12.7774 1.73673C13.1214 1.41375 13.1997 1.03843 13.0121 0.611029C12.8349 0.183848 12.517 -0.0193113 12.0585 0.00144272C10.4638 0.0639237 8.9525 0.421122 7.52453 1.07233C6.09661 1.72369 4.86928 2.58079 3.84258 3.64412C2.816 4.70723 2.00292 5.96588 1.40358 7.41981C0.804394 8.87385 0.504639 10.3982 0.504639 11.9929C0.504639 13.6189 0.822575 15.1719 1.45834 16.6519C2.09426 18.132 2.94879 19.4088 4.02241 20.4823C5.09593 21.5556 6.37271 22.4103 7.85292 23.0463C9.33297 23.6819 10.8857 23.9999 12.5116 23.9999C14.8466 23.9999 17.0012 23.3667 18.9762 22.1003C20.9514 20.8341 22.4289 19.143 23.4087 17.0271C23.4922 16.8397 23.5156 16.6418 23.4788 16.4336ZM16.7877 21.0369C15.438 21.6782 14.0126 21.9986 12.5116 21.9986C11.1567 21.9986 9.86179 21.7329 8.62657 21.2014C7.39152 20.67 6.32824 19.9587 5.43703 19.0673C4.54603 18.1763 3.83481 17.1132 3.30303 15.8781C2.77148 14.6429 2.50567 13.348 2.50567 11.993C2.50567 9.75209 3.17019 7.75094 4.4991 5.98932C5.8279 4.22797 7.53997 3.03453 9.63492 2.40918C8.55095 4.12891 8.00888 5.98932 8.00888 7.99063C8.00888 9.88773 8.47784 11.6439 9.41604 13.2598C10.354 14.8751 11.6309 16.1517 13.2465 17.0901C14.8619 18.0281 16.6178 18.4971 18.515 18.4971C19.0985 18.4971 19.672 18.4503 20.2349 18.3564C19.2866 19.503 18.1372 20.3965 16.7877 21.0369Z" fill="#111517"/>
</svg>
