<svg width="24" height="24" viewBox="0 0 24 24" fill="none" xmlns="http://www.w3.org/2000/svg">
<path d="M23.5132 21.1687L18.4413 16.096C19.674 14.3813 20.3517 12.3322 20.3517 10.1754C20.3517 7.45857 19.2941 4.90353 17.3703 2.98144C15.4507 1.06018 12.894 0 10.1755 0C7.45789 0 4.90202 1.05769 2.98076 2.98144C1.0595 4.90187 0.000976562 7.45774 0.000976562 10.1754C0.000976562 12.893 1.05867 15.4481 2.98076 17.371C4.90202 19.2922 7.45706 20.3524 10.1755 20.3524C12.3316 20.3524 14.3789 19.678 16.0953 18.442L21.1672 23.5147C21.4924 23.8391 21.9155 24.0008 22.3402 24.0008C22.7658 24.0008 23.1897 23.8391 23.5132 23.5147C24.1611 22.866 24.1611 21.8166 23.5132 21.1687ZM5.32758 15.0242C4.03181 13.7284 3.31922 12.0054 3.31922 10.1746C3.31922 8.34372 4.03181 6.62238 5.32758 5.32661C6.62252 4.03083 8.34386 3.31741 10.1755 3.31741C12.0072 3.31741 13.7294 4.03083 15.0243 5.32661C16.3201 6.62238 17.0335 8.34454 17.0335 10.1754C17.0335 12.0062 16.3209 13.7284 15.0243 15.025C13.7285 16.3208 12.008 17.0325 10.1755 17.0325C8.34303 17.0325 6.62087 16.3191 5.32758 15.0242Z" fill="#E0E0E0"/>
</svg>
