<svg width="24" height="17" viewBox="0 0 24 17" fill="none" xmlns="http://www.w3.org/2000/svg">
<path d="M0.326839 9.04705L7.46884 16.1891C7.9046 16.6248 8.6113 16.6248 9.04705 16.1891C9.48289 15.7532 9.48289 15.0467 9.04705 14.6109L3.81008 9.37389L22.8841 9.37388C23.5003 9.37388 24 8.87421 24 8.25795C24 7.64177 23.5003 7.14201 22.8841 7.14201L3.81008 7.14201L9.04687 1.90504C9.48271 1.4692 9.48271 0.762678 9.04687 0.326837C8.82904 0.109095 8.54336 1.66691e-06 8.25777 1.69188e-06C7.97218 1.71685e-06 7.68658 0.109096 7.46866 0.326837L0.326839 7.46885C-0.109002 7.90469 -0.109002 8.61121 0.326839 9.04705Z" fill="#111517"/>
</svg>
