<svg width="500" height="512" viewBox="0 0 500 512" fill="none" xmlns="http://www.w3.org/2000/svg">
<path d="M383.585 442.11C364.307 442.11 348.623 457.786 348.623 477.054C348.623 496.323 364.306 511.999 383.585 511.999C402.863 511.999 418.547 496.323 418.547 477.054C418.546 457.787 402.863 442.11 383.585 442.11ZM383.585 491.999C375.336 491.999 368.624 485.295 368.624 477.054C368.624 468.813 375.335 462.11 383.585 462.11C391.834 462.11 398.546 468.813 398.546 477.054C398.546 485.295 391.834 491.999 383.585 491.999Z" fill="#111517"/>
<path d="M442.592 56.892C411.343 25.648 371.666 6.42799 327.852 1.30699C285.365 -3.66101 241.86 5.63899 205.364 27.491C200.625 30.329 199.083 36.47 201.92 41.208C204.757 45.947 210.899 47.486 215.637 44.651C284.29 3.54499 371.8 14.396 428.451 71.038C474.433 116.97 490.002 183.5 472.526 243.266C469.817 228.151 463.33 214.332 454.087 202.813C456.521 160.335 440.822 118.989 410.647 88.805C352.473 30.701 257.813 30.697 199.63 88.81C171.456 116.98 155.939 154.428 155.939 194.254C155.939 234.081 171.456 271.522 199.634 299.68C223.839 323.856 255.878 339.085 289.848 342.564C294.9 343.082 299.962 343.337 305.014 343.337C322.236 343.337 339.33 340.342 355.457 334.59C351.603 343.427 349.722 351.502 348.998 362.904C289.202 378.415 225.727 361.343 181.831 317.476C166.748 302.403 154.912 285.157 146.435 266.669C146.24 266.096 145.993 265.538 145.691 265.001C123.038 214.193 125.577 154.291 155.671 104.388C158.523 99.658 157.001 93.512 152.271 90.66C147.541 87.806 141.394 89.33 138.543 94.06C116.532 130.561 107.122 174.109 112.049 216.683C114.106 234.458 118.487 251.552 125.051 267.682L113.743 278.981C105.762 286.958 101.366 297.594 101.366 308.93C101.366 316.439 103.305 323.634 106.926 329.958L65.92 370.939C65.918 370.941 65.915 370.944 65.912 370.946C65.909 370.948 65.908 370.951 65.905 370.954L38.193 398.648C38.187 398.654 38.18 398.659 38.173 398.666C38.167 398.672 38.162 398.679 38.156 398.685L13.388 423.437C5.077 431.742 0.5 442.821 0.5 454.633C0.5 466.445 5.077 477.524 13.387 485.829C21.696 494.132 32.778 498.705 44.592 498.705C56.409 498.705 67.486 494.13 75.775 485.829L100.317 461.303C100.41 461.217 100.507 461.139 100.598 461.049C100.686 460.961 100.762 460.865 100.846 460.775L169.33 392.334C175.829 396.053 183.106 397.921 190.388 397.921C201.239 397.92 212.093 393.791 220.356 385.533L231.715 374.162C254.931 383.63 279.829 388.541 305.04 388.541C319.773 388.541 334.613 386.857 349.284 383.437C352.442 399.483 366.618 411.626 383.584 411.626C402.862 411.626 418.546 395.95 418.546 376.681C418.546 363.287 418.694 363.034 426.479 349.758C428.986 345.477 433.45 341.957 438.176 338.23C440.105 336.708 442.1 335.136 444.048 333.448C455.476 323.562 462.611 312.787 467.031 301.802C518.205 225.042 508.025 122.253 442.592 56.892V56.892ZM121.263 412.094L87.137 378.011L120.017 345.152L154.132 379.245L121.263 412.094ZM93.511 439.829L59.395 405.736L72.991 392.149L107.117 426.232L93.511 439.829ZM61.629 471.69C57.111 476.214 51.061 478.705 44.592 478.705C38.118 478.705 32.057 476.211 27.526 471.682C22.996 467.155 20.501 461.1 20.501 454.633C20.501 448.166 22.996 442.111 27.527 437.584L45.248 419.874L79.364 453.967L61.629 471.69ZM206.212 371.392C197.489 380.113 183.295 380.111 174.57 371.392L127.881 324.734C123.681 320.536 121.367 314.924 121.367 308.932C121.367 302.941 123.681 297.328 127.881 293.13L134.144 286.871C142.982 303.122 154.216 318.156 167.693 331.624C181.162 345.084 196.29 356.27 212.525 365.072L206.212 371.392ZM213.77 285.532C189.376 261.153 175.941 228.737 175.941 194.255C175.941 159.771 189.376 127.346 213.769 102.957C264.151 52.634 346.131 52.633 396.51 102.952C418.491 124.938 431.598 153.773 433.949 184.277C419.549 174.577 402.217 168.908 383.586 168.908C359.386 168.908 336.686 178.365 319.668 195.538C302.617 212.744 293.227 235.76 293.227 260.348C293.227 280.563 308.584 296.399 328.189 296.399C347.778 296.399 363.122 280.564 363.122 260.348C363.122 248.265 372.111 238.799 383.586 238.799C394.87 238.799 404.049 247.97 404.049 259.243C404.049 270.649 403.508 276.114 398.315 280.594C396.001 282.596 393.809 284.416 391.689 286.177C385.085 291.659 379.119 296.625 373.335 303.917C322.853 335.321 256.003 327.711 213.77 285.532V285.532ZM430.957 318.326C429.351 319.718 427.623 321.081 425.792 322.524C420.093 327.017 413.634 332.11 409.223 339.647C400.022 355.337 398.546 359.134 398.546 376.68C398.546 384.92 391.835 391.625 383.585 391.625C375.336 391.625 368.624 384.921 368.624 376.68C368.624 374.562 368.642 372.592 368.679 370.729C368.679 370.694 368.681 370.66 368.681 370.625C369.09 350.674 371.948 344.129 383.419 324.562C389.732 313.794 395.592 308.929 404.464 301.563C406.661 299.738 408.934 297.851 411.392 295.725C424.049 284.803 424.049 270.63 424.049 259.241C424.049 236.94 405.897 218.796 383.585 218.796C360.894 218.796 343.12 237.047 343.12 260.346C343.12 269.346 336.561 276.396 328.188 276.396C319.799 276.396 313.227 269.346 313.227 260.346C313.227 220.954 344.789 188.907 383.585 188.907C422.38 188.907 453.942 220.459 453.942 259.24C453.942 287.087 447.284 304.204 430.957 318.326V318.326Z" fill="#111517"/>
<path d="M174.74 73.971C177.308 73.971 179.877 72.991 181.833 71.035C185.738 67.13 185.738 60.797 181.833 56.892C177.927 52.988 171.596 52.988 167.69 56.892L167.662 56.92C163.757 60.825 163.771 67.143 167.677 71.048C169.626 72.998 172.182 73.971 174.74 73.971V73.971Z" fill="#111517"/>
</svg>
