<svg width="24" height="24" fill="none" xmlns="http://www.w3.org/2000/svg"><path d="M23.479 16.434a.97.97 0 00-.274-.532c-.323-.323-.698-.391-1.125-.204a8.383 8.383 0 01-3.565.797 8.31 8.31 0 01-4.268-1.14 8.477 8.477 0 01-3.095-3.096A8.311 8.311 0 0110.01 7.99c0-1.2.237-2.338.712-3.417a8.316 8.316 0 012.055-2.837c.344-.323.423-.699.235-1.126-.177-.427-.495-.63-.954-.61a11.95 11.95 0 00-4.533 1.071c-1.428.652-2.656 1.509-3.682 2.572-1.027 1.063-1.84 2.322-2.44 3.776a11.887 11.887 0 00-.898 4.573c0 1.626.318 3.179.953 4.659.636 1.48 1.49 2.757 2.564 3.83 1.074 1.074 2.35 1.928 3.83 2.564 1.481.636 3.034.954 4.66.954 2.335 0 4.49-.633 6.464-1.9 1.975-1.266 3.453-2.957 4.433-5.073a1 1 0 00.07-.593z" fill="#fff"/></svg>