<svg width="24" height="24" fill="none" xmlns="http://www.w3.org/2000/svg"><path d="M23.513 21.169l-5.072-5.073a10.102 10.102 0 001.91-5.92c0-2.717-1.057-5.272-2.98-7.195A10.107 10.107 0 0010.175 0 10.1 10.1 0 002.98 2.981 10.106 10.106 0 000 10.175a10.11 10.11 0 002.98 7.196 10.11 10.11 0 007.194 2.981c2.157 0 4.204-.674 5.92-1.91l5.072 5.073c.325.324.748.486 1.173.486a1.659 1.659 0 001.173-2.832zM5.328 15.024a6.814 6.814 0 01-2.009-4.85 6.81 6.81 0 012.009-4.847 6.808 6.808 0 014.847-2.01 6.81 6.81 0 014.85 2.01 6.813 6.813 0 012.008 4.848c0 1.831-.712 3.553-2.009 4.85a6.808 6.808 0 01-4.848 2.007 6.807 6.807 0 01-4.848-2.008z" fill="#CCC"/></svg>